<svg width="66" height="91" viewBox="0 0 66 91" fill="none" xmlns="http://www.w3.org/2000/svg">
<path fill-rule="evenodd" clip-rule="evenodd" d="M28.4165 51.0306C29.7733 50.1216 31.3683 49.6364 33 49.6364C34.6317 49.6364 36.2268 50.1216 37.5835 51.0306C38.9402 51.9396 39.9976 53.2316 40.622 54.7433C41.2464 56.2549 41.4098 57.9183 41.0915 59.523C40.8941 60.5183 40.5168 61.4633 39.9836 62.3135C39.5126 63.0644 39.286 63.5404 39.2288 63.9558L39.1875 64.2557V68.25C39.1875 71.6767 36.4173 74.4545 33 74.4545C29.5827 74.4545 26.8125 71.6767 26.8125 68.25V64.2557L26.7712 63.9558C26.714 63.5404 26.4874 63.0644 26.0164 62.3135C25.4832 61.4633 25.1059 60.5183 24.9085 59.523C24.5902 57.9183 24.7536 56.2549 25.378 54.7433C26.0024 53.2316 27.0598 51.9396 28.4165 51.0306ZM33 53.7727C32.1842 53.7727 31.3866 54.0153 30.7083 54.4698C30.0299 54.9243 29.5012 55.5704 29.189 56.3262C28.8768 57.082 28.7951 57.9137 28.9543 58.7161C29.053 59.2137 29.2416 59.6861 29.5082 60.1113C29.9947 60.8868 30.6687 62.019 30.8574 63.39L30.9375 63.9715V68.25C30.9375 69.3922 31.8609 70.3182 33 70.3182C34.1391 70.3182 35.0625 69.3922 35.0625 68.25V63.9715L35.1426 63.39C35.3313 62.019 36.0054 60.8868 36.4918 60.1113C36.7584 59.6861 36.947 59.2137 37.0457 58.7161C37.2049 57.9137 37.1232 57.082 36.811 56.3262C36.4988 55.5704 35.9701 54.9243 35.2917 54.4698C34.6134 54.0153 33.8159 53.7727 33 53.7727Z" fill="#01F4F5"/>
<path fill-rule="evenodd" clip-rule="evenodd" d="M53.625 37.2273V20.6818C53.625 17.9658 53.0915 15.2765 52.055 12.7672C51.0185 10.258 49.4993 7.97805 47.5841 6.05757C45.6689 4.13708 43.3952 2.61367 40.8928 1.57431C38.3905 0.534952 35.7085 0 33 0C30.2915 0 27.6095 0.53495 25.1072 1.57431C22.6048 2.61367 20.3311 4.13708 18.4159 6.05756C16.5007 7.97805 14.9815 10.258 13.945 12.7672C12.9085 15.2765 12.375 17.9658 12.375 20.6818V37.2273H10.3125C4.61706 37.2273 0 41.8571 0 47.5682V80.6591C0 86.3702 4.61706 91 10.3125 91H55.6875C61.3829 91 66 86.3702 66 80.6591V47.5682C66 41.8571 61.3829 37.2273 55.6875 37.2273H53.625ZM33 4.13636C30.8332 4.13636 28.6876 4.56432 26.6857 5.39581C24.6839 6.2273 22.8649 7.44603 21.3327 8.98241C19.8006 10.5188 18.5852 12.3428 17.756 14.3501C16.9268 16.3575 16.5 18.509 16.5 20.6818V37.2273H49.5V20.6818C49.5 18.509 49.0732 16.3575 48.244 14.3501C47.4148 12.3428 46.1994 10.5188 44.6673 8.98242C43.1351 7.44603 41.3162 6.2273 39.3143 5.39581C37.3124 4.56432 35.1668 4.13636 33 4.13636ZM10.3125 41.3636C6.89524 41.3636 4.125 44.1415 4.125 47.5682V80.6591C4.125 84.0858 6.89524 86.8636 10.3125 86.8636H55.6875C59.1048 86.8636 61.875 84.0858 61.875 80.6591V47.5682C61.875 44.1415 59.1048 41.3636 55.6875 41.3636H10.3125Z" fill="#01F4F5"/>
</svg>
