<svg width="44" height="44" viewBox="0 0 44 44" fill="none" xmlns="http://www.w3.org/2000/svg">
<path fill-rule="evenodd" clip-rule="evenodd" d="M21.9997 14.6143C17.9207 14.6143 14.614 17.921 14.614 22C14.614 26.079 17.9207 29.3857 21.9997 29.3857C26.0787 29.3857 29.3854 26.079 29.3854 22C29.3854 17.921 26.0787 14.6143 21.9997 14.6143ZM10.5283 22C10.5283 15.6645 15.6642 10.5286 21.9997 10.5286C28.3352 10.5286 33.4711 15.6645 33.4711 22C33.4711 28.3355 28.3352 33.4714 21.9997 33.4714C15.6642 33.4714 10.5283 28.3355 10.5283 22Z" fill="#01F4F5"/>
<path fill-rule="evenodd" clip-rule="evenodd" d="M33.7289 13.1337C35.2911 13.1337 36.5575 11.8673 36.5575 10.3051C36.5575 8.74296 35.2911 7.47656 33.7289 7.47656C32.1668 7.47656 30.9004 8.74296 30.9004 10.3051C30.9004 11.8673 32.1668 13.1337 33.7289 13.1337Z" fill="#01F4F5"/>
<path fill-rule="evenodd" clip-rule="evenodd" d="M0 11.9429C0 5.34701 5.347 0 11.9429 0H32.0571C38.653 0 44 5.347 44 11.9429V32.0571C44 38.653 38.653 44 32.0571 44H11.9429C5.34701 44 0 38.653 0 32.0571V11.9429ZM11.9429 3.77143C7.4299 3.77143 3.77143 7.42991 3.77143 11.9429V32.0571C3.77143 36.5701 7.42991 40.2286 11.9429 40.2286H32.0571C36.5701 40.2286 40.2286 36.5701 40.2286 32.0571V11.9429C40.2286 7.4299 36.5701 3.77143 32.0571 3.77143H11.9429Z" fill="#01F4F5"/>
</svg>
