<svg width="220" height="268" viewBox="0 0 220 268" fill="none" xmlns="http://www.w3.org/2000/svg">
<path d="M195.167 158.333V207H170.833V158.333H195.167ZM49.1667 158.333V207H37C30.3083 207 24.8333 201.525 24.8333 194.833V158.333H49.1667ZM110 0.166748C49.5317 0.166748 0.5 49.1984 0.5 109.667V194.833C0.5 215.03 16.8033 231.333 37 231.333H73.5V134H24.8333V109.667C24.8333 62.5817 62.915 24.5001 110 24.5001C157.085 24.5001 195.167 62.5817 195.167 109.667V134H146.5V231.333H195.167V243.5H110V267.833H183C203.197 267.833 219.5 251.53 219.5 231.333V109.667C219.5 49.1984 170.468 0.166748 110 0.166748Z" fill="#01F4F5"/>
</svg>
