<svg width="109" height="109" viewBox="0 0 109 109" fill="none" xmlns="http://www.w3.org/2000/svg">
<path d="M96.8889 12.1111H84.7778V0H24.2222V12.1111H12.1111C5.45 12.1111 0 17.5611 0 24.2222V30.2778C0 45.7194 11.6267 58.315 26.5839 60.1922C30.3989 69.2756 38.5739 76.1183 48.4444 78.1167V96.8889H24.2222V109H84.7778V96.8889H60.5556V78.1167C70.4261 76.1183 78.6011 69.2756 82.4161 60.1922C97.3733 58.315 109 45.7194 109 30.2778V24.2222C109 17.5611 103.55 12.1111 96.8889 12.1111ZM12.1111 30.2778V24.2222H24.2222V47.3544C17.1978 44.8111 12.1111 38.15 12.1111 30.2778ZM54.5 66.6111C44.5083 66.6111 36.3333 58.4361 36.3333 48.4444V12.1111H72.6667V48.4444C72.6667 58.4361 64.4917 66.6111 54.5 66.6111ZM96.8889 30.2778C96.8889 38.15 91.8022 44.8111 84.7778 47.3544V24.2222H96.8889V30.2778Z" fill="white"/>
</svg>
