<svg width="50" height="40" viewBox="0 0 50 40" fill="none" xmlns="http://www.w3.org/2000/svg">
<path fill-rule="evenodd" clip-rule="evenodd" d="M44.898 11.006C44.898 10.5834 44.898 10.1609 44.8779 9.7383C46.8787 8.35534 48.6194 6.60744 50 4.62905C48.1593 5.41657 46.1785 5.93517 44.0976 6.18487C46.2185 4.97479 47.8391 3.03481 48.6194 0.729892C46.6387 1.86315 44.4378 2.66987 42.0968 3.11164C40.2161 1.19088 37.5 0 33.3333 0C28.3333 0 24.3497 4.41777 24.3497 9.85354C24.3497 10.6218 24.4498 11.3709 24.6098 12.1008C16.0864 11.6975 8.52341 7.7599 3.46138 1.80552C2.58103 3.26531 2.08083 4.95558 2.08083 6.7611C2.08083 10.1801 3.90156 13.1957 6.64266 14.9628C4.96198 14.9052 3.38135 14.4634 2.0008 13.7335C2.0008 13.7719 2.0008 13.8103 2.0008 13.8679C2.0008 18.6315 5.54222 22.6266 10.2241 23.5294C9.36375 23.7599 8.46338 23.8752 7.52301 23.8752C6.86274 23.8752 6.22249 23.8175 5.60224 23.7023C6.90276 27.6206 10.7043 30.4634 15.1861 30.5402C11.6647 33.1909 7.2429 34.7659 2.44098 34.7659C1.62065 34.7659 0.80032 34.7275 0 34.6315C4.52181 37.3974 10.8844 40 16.6667 40C35.5342 40 44.898 24.0096 44.898 11.006Z" fill="#01F4F5"/>
</svg>
