<svg width="46" height="34" viewBox="0 0 46 34" fill="none" xmlns="http://www.w3.org/2000/svg">
<path fill-rule="evenodd" clip-rule="evenodd" d="M7.25389 0.610194C3.05216 0.954664 0 4.46211 0 8.61725V25.3828C0 29.5379 3.05216 33.0453 7.25389 33.3898C11.1401 33.7084 16.4783 34 23 34C29.5217 34 34.8599 33.7084 38.7461 33.3898C42.9478 33.0453 46 29.5379 46 25.3828V8.61725C46 4.46211 42.9478 0.954664 38.7461 0.610194C34.8599 0.291592 29.5217 0 23 0C16.4783 0 11.1401 0.291592 7.25389 0.610194ZM30.3201 17.0003L18.2974 24.1754V9.82463L30.3201 17.0003Z" fill="#01F4F5"/>
</svg>
